<svg width="32" height="32" viewBox="0 0 32 32" fill="none" xmlns="http://www.w3.org/2000/svg">
<g clip-path="url(#clip0_19_4006)">
<path fill-rule="evenodd" clip-rule="evenodd" d="M18.4599 16.5781L22.5669 18.9493C22.9678 19.1808 23.0975 19.7067 22.8718 20.0977C22.6392 20.5005 22.1374 20.6461 21.7248 20.4079L17.5482 17.9965C17.1205 18.3286 16.5834 18.5263 16 18.5263C14.6048 18.5263 13.4737 17.3952 13.4737 16C13.4737 14.9 14.1767 13.9643 15.1579 13.6174V5.90049C15.1579 5.43223 15.5485 5.05263 16 5.05263C16.4651 5.05263 16.8421 5.44488 16.8421 5.90049V13.6174C17.8233 13.9643 18.5263 14.9 18.5263 16C18.5263 16.1989 18.5033 16.3924 18.4599 16.5781ZM16 32C24.8366 32 32 24.8366 32 16C32 7.16344 24.8366 0 16 0C7.16344 0 0 7.16344 0 16C0 24.8366 7.16344 32 16 32ZM16 30.3158C23.9064 30.3158 30.3158 23.9064 30.3158 16C30.3158 8.09361 23.9064 1.68421 16 1.68421C8.09361 1.68421 1.68421 8.09361 1.68421 16C1.68421 23.9064 8.09361 30.3158 16 30.3158Z" fill="#7D9C97"/>
</g>
<defs>
<clipPath id="clip0_19_4006">
<rect width="32" height="32" fill="white"/>
</clipPath>
</defs>
</svg>
